<svg version="1.1" xmlns="http://www.w3.org/2000/svg" viewBox="0 0 681.5 302.5" width="681.5" height="302.5">
  <!-- svg-source:excalidraw -->
  
  <defs>
    <style>
      @font-face {
        font-family: "Virgil";
        src: url("https://excalidraw.com/FG_Virgil.woff2");
      }
      @font-face {
        font-family: "Cascadia";
        src: url("https://excalidraw.com/Cascadia.woff2");
      }
    </style>
  </defs>
  <rect x="0" y="0" width="681.5" height="302.5" fill="#ffffff"/><g transform="translate(11.5 108.5) rotate(0 107 59.5)"><path d="M-0.09889264072342366 -1.225033160383482 C83.60981357906883 -0.21661551531630652, 164.27923397327058 0.9402565999461541, 214.48433850722776 1.3005639907261655 M0.32605208440407735 -0.31284893078074677 C83.99188868254251 -0.2337100627298383, 168.49685485254602 -1.4878548089020995, 213.5127475713824 0.05702219952571168 M212.98395151272416 -1.6765292920172215 C213.9727596530132 33.1162553826347, 211.99964361278342 66.80466612540185, 213.07424694672227 119.9743652306497 M213.82523166947067 -0.2420829813927412 C214.18298398742454 44.336063966341314, 214.7085100937821 91.13183367103338, 214.33155852369964 119.66149750538169 M213.17745267920006 118.5428072667038 C169.18183906396288 117.06161827441002, 121.69256848729529 118.24420660813257, 1.0542464009213879 117.89240127631871 M214.6859782969788 119.45761986354684 C155.5269741026984 117.52347643297139, 96.14500962554678 117.54398330928296, 0.5778231952898166 118.21012143474226 M-0.8721073232591152 117.50739895924924 C-0.15765898404642953 78.55219256933776, 1.3029026490636169 37.55389154441653, -0.6448413692414761 0.8622653447091579 M0.7781310062855482 118.16180440969764 C0.027675201650708914 92.3015325969085, 0.2768531939946115 66.13019701763986, 0.599944768473506 -0.06608101539313793" stroke="#e67700" stroke-width="1" fill="none"/></g><g transform="translate(10 69.5) rotate(0 106.5 13)"><text x="106.5" y="18" font-family="Virgil, Segoe UI Emoji" font-size="20px" fill="#e67700" text-anchor="middle" style="white-space: pre;" direction="ltr">C, C++, Rust, Golang</text></g><g transform="translate(22 137.5) rotate(0 96.5 31.5)"><text x="0" y="15" font-family="Virgil, Segoe UI Emoji" font-size="16px" fill="#343a40" text-anchor="start" style="white-space: pre;" direction="ltr">fn main() {</text><text x="0" y="36" font-family="Virgil, Segoe UI Emoji" font-size="16px" fill="#343a40" text-anchor="start" style="white-space: pre;" direction="ltr">    println!("Hello World");</text><text x="0" y="57" font-family="Virgil, Segoe UI Emoji" font-size="16px" fill="#343a40" text-anchor="start" style="white-space: pre;" direction="ltr">}</text></g><g><g transform="translate(254.5 158.5) rotate(0 69.16054032817482 0.5052371769119048)"><path d="M-0.5206555388867855 0.2364823959767819 C22.80672981515527 0.42157402659455945, 115.6503013111651 0.32792458360393845, 138.84173619523645 0.4478802584111691 M1.4068615738581864 -0.6849682914745063 C24.748102949960153 -0.28583580658150226, 115.53809063057415 1.206161778218423, 138.33560223410836 1.695442645298317" stroke="#495057" stroke-width="1" fill="none"/></g><g transform="translate(254.5 158.5) rotate(0 69.16054032817482 0.5052371769119048)"><path d="M110.35317782652493 12.833362967804796 C114.9509982340743 10.5903632529487, 121.65662330243117 9.073971051695505, 140.31231404746882 3.5513853677082805 M109.99749133516963 11.490738756120926 C118.00944454557902 8.659245666192547, 126.6373092826719 6.260755250871112, 138.98409391286782 1.037268042983487" stroke="#495057" stroke-width="1" fill="none"/></g><g transform="translate(254.5 158.5) rotate(0 69.16054032817482 0.5052371769119048)"><path d="M110.73447760997578 -7.684302904827504 C115.14027431317675 -5.693043725613119, 121.7671792763851 -2.973522650760583, 140.31231404746882 3.5513853677082805 M110.37879111862048 -9.026927116511374 C118.33267636876242 -5.4875901461006835, 126.84212553255625 -1.514162001496409, 138.98409391286782 1.037268042983487" stroke="#495057" stroke-width="1" fill="none"/></g></g><g transform="translate(271.5 115) rotate(0 43 10.5)"><text x="0" y="15" font-family="Virgil, Segoe UI Emoji" font-size="16px" fill="#495057" text-anchor="start" style="white-space: pre;" direction="ltr">Compilation</text></g><g transform="translate(421.5 41.5) rotate(0 125 125.5)"><path d="M-0.2075060898358598 -1.3270864667901021 C57.25282673206869 -0.10161799259098804, 114.0712733423262 -0.285812757128084, 250.30444805795864 -0.1332582792002186 M0.018911355266023423 -0.1267819537831433 C64.233311331968 1.6001224927881785, 128.40611856250374 0.2993940220465492, 250.1242185971437 0.42907472346950687 M248.83521764567234 1.008036650204864 C250.76745046589758 86.61091136367756, 251.1997583554473 175.54921555294675, 249.33637439137235 251.85894353383685 M249.39329713277337 0.5071953028180762 C248.8337543676208 71.8248336714033, 249.21461447788667 144.39088642706585, 250.61780196176434 251.63871392660496 M250.74806536897256 252.57448167455254 C189.01052845294276 251.1112963279876, 130.66223883259013 251.2886343173415, -0.043989320345379404 250.8399176081904 M249.43326610094803 251.42695886209262 C154.82194554885692 251.90741894808033, 59.78832848521866 252.97875268791762, -0.6246107804882041 250.54029505389454 M0.17736453811448513 252.14815052431243 C1.1492286941819438 150.43175548783537, -0.45704412734620453 50.284961338287665, -1.5342919931691794 -0.8495350694664805 M-0.563036984558241 251.79783838914534 C2.176804064762307 156.96169077739427, 1.0651504107917318 62.59987798934158, 0.7012642735983922 0.2501316679950878" stroke="#0b7285" stroke-width="1" fill="none"/></g><g transform="translate(532.5 94.5) rotate(0 37.5 43.5)"><path d="M0 0 C0 0, 0 0, 0 0 M0 0 C0 0, 0 0, 0 0 M0.47898492592853803 5.8614977837103535 C0.47327601435638345 4.657517549124848, 2.5164531556812895 3.175924850142411, 5.320432154419369 0.31988041660163935 M-0.15400229689198236 6.135265014370076 C1.6920053243308675 3.8273530912696865, 3.578559534451834 2.162315956541576, 5.097406035991853 0.2261178020236307 M1.6938883283268322 13.063675257980407 C3.4537110837774887 9.442823748734318, 8.34636558853177 2.9898005053697347, 10.90002192105068 -0.5432380651042104 M-0.6279707169998778 11.405698292374193 C2.143240072888125 8.846426431837145, 5.91054361135866 6.530195606093068, 10.9947937637092 -0.21162109569760545 M-1.2817553794523935 16.546395334322625 C4.751969676661049 11.368554007727116, 9.886549522269313 5.34774473762279, 14.243820670529683 -1.494447524945719 M0.2400130470702191 17.830112007354074 C4.17240074869488 13.370851499331504, 8.224977883353276 7.563600231466522, 15.564429083376606 -0.40575099113164637 M-0.6973096391000535 22.12676818826711 C8.117655060757393 14.785241313263441, 14.049002860499789 6.5989462758093005, 19.487379359358812 1.0862774042576078 M0.5974184369853948 23.945728908940314 C8.48825236461476 14.302932761730466, 17.0655335649183 4.500397939783195, 21.256398700455094 -0.5811085371137139 M-1.0426999357948645 28.97189472033476 C4.8708992378364675 24.287392613306537, 11.269673541814857 15.581794663024139, 28.220413534578295 1.5183038631465973 M0.9846340148290054 30.409025285158506 C9.986705024914242 18.97603965905933, 20.128598027008522 6.750598270129281, 25.847624306243272 0.6094629032549204 M0.07873334539118204 36.8579491393653 C10.966825437394995 21.277988106632435, 24.7323368927226 10.534628536405123, 32.27298559010664 -2.0167472696617956 M-0.6475424208771905 36.80043559875463 C11.097112759733497 24.78677327128233, 21.882256538185906 12.247733461665316, 32.7125408532534 -0.2446399125025387 M1.7472435693861001 43.31501190419846 C10.910818936348011 26.865650853237618, 23.752616690684874 12.908923372157872, 35.90951555390035 1.060489455340477 M0.21614005338857112 43.41719118747466 C11.043846914061483 30.312118544329014, 19.751860287950816 19.51114955238878, 36.978300303035724 0.36911496902820673 M1.133500764146369 48.51619846434228 C14.856204783577006 32.50998880982818, 25.130708471460856 19.706500851355454, 44.45225331987791 -1.6855525832296365 M-0.0002916008234805645 49.22494900473289 C14.618971136165738 31.352807239592504, 29.173721876895815 15.260934520573443, 42.08574385810249 0.5362180553703553 M1.4660048235905023 52.619692198413716 C15.859891899395649 37.30245581944921, 30.402894056039717 20.975455781533434, 46.407806415995836 -1.0426954358640863 M0.9408788189989181 54.262324558052526 C18.82959869219098 34.38937761039527, 36.98210295245616 13.23344600894761, 47.85342973000395 0.6402950499382065 M-1.84238672432501 60.43142105592082 C13.954951415874902 44.880201393656534, 26.02583397483673 31.9940198972507, 54.09061223617262 -1.563693223945915 M-0.8449154755939929 61.36606855084787 C16.263638194461148 40.58028393625816, 33.71008477543113 21.795577829405772, 53.03860537125236 -0.987069789745032 M-1.227045514672163 66.74709049570332 C21.874570283139505 43.61268145717119, 42.171392147259084 16.616434580543846, 57.74946580836476 -0.9035554979670799 M0.5403889389195413 66.5755998208649 C13.864268767931383 50.43615646512365, 29.46035885486636 31.658590040443926, 57.40123524339796 -0.34115701026506784 M0.4352505674770484 73.24131222660093 C23.69701717338524 45.855770093399826, 48.81973807334482 17.281803176193797, 62.19099202649076 -1.2322238793106308 M0.12180861106127594 73.08463408084957 C25.57581577772161 44.44705018293624, 50.78969599640231 15.629413869416496, 64.26497304895301 -0.09428860409870055 M-0.7668596999208859 81.3567329481217 C13.373877432652362 61.841087219523686, 28.505854241516303 43.73537819712241, 68.90617341850712 -0.5718954184685217 M-0.6043638726185492 79.1928126592162 C27.20648125842383 48.271458311569745, 53.52461772462337 16.16927350862599, 68.58118949946775 0.1293486321683659 M2.1880923270525443 85.64606728888259 C21.47685751569457 62.52641302406286, 40.555041319150796 39.760526929255356, 72.69382237833234 -0.20969923682378067 M0.23435331539232607 84.71023543848798 C27.196488841208062 53.15311884112475, 55.73588349640052 22.851755381641347, 73.48994454745444 -0.5964735439406468 M3.349110013325351 88.17064570772334 C20.94904667778902 70.4115020380803, 36.0723543082782 47.99818766563867, 77.8189318469514 2.229108855799929 M2.918836098615664 88.41850875641092 C18.905570177496784 69.48781827418853, 36.585345363861435 51.30086862590968, 78.4158380674918 1.489280561656848 M5.791967560797062 90.10657617281532 C29.468560766926444 61.73727931140539, 54.86428922879057 37.775375207720515, 77.26038366030178 6.349631398465114 M8.075090612544741 88.73940708506262 C26.430743234449032 66.49181451483315, 45.8065933254071 44.63108515237883, 78.25321820411108 7.465895616929608 M11.80938360247162 88.9356782847805 C34.893827698005836 63.52490306476308, 58.83581557361133 35.221856699380915, 78.77383049129251 13.121748439565966 M12.801926798777252 89.9883071539713 C36.018818298478394 64.06157695185567, 58.43627818568416 37.41353254430644, 77.36656331381504 14.927824424178073 M19.40720178226755 89.97629167223576 C34.268121917280766 67.81272677898673, 51.751766548271966 51.22318808365538, 76.98640070485162 19.27866543794221 M19.10463898482547 88.96749634566012 C42.09902805194075 61.84619327411805, 65.18337359800316 34.34641380552249, 77.62268682012545 21.44573582114822 M25.150623378141326 90.81950053468921 C40.39299385092577 67.44343131279041, 63.87638636827995 42.229575892766576, 78.08381641590708 26.432494102433576 M22.678738507239622 88.46489723854341 C37.79781708433292 71.91140396543999, 53.02303840729607 54.632499854449314, 77.01535527156406 26.744595520586028 M28.787679534011474 89.91645700075777 C37.88956198025834 77.94853864982275, 48.01081484177625 67.9869355579719, 77.2172164024154 33.96338113254809 M29.47092594353198 88.90389096514436 C41.678726656850046 73.98411648698517, 56.171199866173836 56.7433386204701, 77.00961125468112 32.655294850905776 M35.37575902783447 87.24105776994949 C51.24774085501795 70.83749996443024, 69.00967612694001 50.50702782672358, 78.47056930829507 40.36154115690274 M33.74311888025277 90.06849385387724 C47.216987583784395 72.56881328114216, 62.6566153181906 57.190116342399484, 78.44668659698885 37.51918369463069 M39.905080503528836 88.87726747088135 C56.13958688906811 72.0487759767472, 67.87504577649194 55.860325075001136, 76.98720141150261 43.889933375005555 M38.63342414491427 88.75318078726531 C50.756739909486 76.77348685217008, 63.15226146259465 62.33660742836181, 77.60803013503755 43.913247130175066 M45.42522023905106 87.68179530306135 C52.32838849846797 80.40154527319605, 60.907565123272356 72.81614592980803, 78.93720982696601 51.92629449569625 M44.22016557406671 88.4880618437228 C53.56804634768429 77.69033895447053, 63.80331387524342 67.69003136299081, 78.12022091734895 51.054638370284856 M51.668584378319636 87.87141839510647 C59.506439787840065 78.77731768839952, 65.56302511612051 69.91220863709685, 78.92428541961326 57.85226747781456 M50.082856245222345 89.18870565577296 C57.817873729554464 80.50408213539696, 65.39462732958079 70.73809744866092, 78.29929111744477 56.75230750270605 M53.176936699291076 89.68565844652476 C62.0027589745589 81.27112362960752, 65.91719944148872 78.54664858870743, 77.39253571740088 61.94253027086854 M55.366226244931426 88.88131605183007 C62.30654160481129 79.1522363115754, 71.77850129224944 69.9118218236497, 76.4950489468753 63.35863023085296 M59.92487084588387 89.97410508593316 C66.37859582778282 81.27781181601395, 68.05889754573286 76.98174012332296, 76.59389811424735 68.70682875347512 M61.3411949007062 89.35255541441734 C66.14152452209507 82.45410810330658, 71.44814045551186 78.33362084553428, 76.99599185815278 68.17394081224876 M67.27802608327778 90.66992376718788 C71.68185626707434 84.15567352063532, 72.850491228208 80.58253732791427, 78.60042892330989 75.5356512988593 M65.49833049101593 89.78398969538628 C67.90009017717584 85.7612929689676, 72.39208337420396 82.86354733311158, 78.04122893055633 75.19280109150816 M70.52961464000187 88.46040185340338 C72.97403006018803 87.03851049872941, 76.16250815676504 83.19265482462677, 77.55026258559165 81.93650158878255 M71.6562090682543 88.70004802639255 C72.60782417160488 87.0540868470005, 74.14737350901638 84.98750713131707, 77.61461745931966 81.61061131341222" stroke="#12b886" stroke-width="0.5" fill="none"/><path d="M-0.05386662855744362 -0.19602709636092186 C26.760682965628803 0.26962734246626496, 51.53055101074278 -1.7378743789158762, 76.04565536603332 -1.1698262058198452 M-0.7648601215332747 -0.5629265327006578 C20.920410769991577 -0.6331684147007763, 39.647950414568186 -0.61980737792328, 75.70441517420113 0.8248738627880812 M73.11735736951232 -1.0424162708222866 C76.3844610923715 19.86060019042343, 74.18936233462766 41.87867173589766, 76.95796441659331 87.9003533758223 M75.86048159189522 0.3069223742932081 C73.65486224016175 29.81370286922902, 73.7068059595488 61.455430187284946, 74.57191577740014 86.94649088196456 M74.47122525796294 86.51442712917924 C60.45172777492553 87.2305322564207, 45.80039053969085 85.0439152396284, -0.46917736902832985 87.33921963348985 M74.66320863552392 87.744045374915 C58.04831181559712 87.19856618018821, 42.208715975284576 86.72244433732703, -0.13679936341941357 87.55792838148773 M-0.5368186272680759 86.22804314270616 C0.4018091121129691 64.89221543315797, 1.04976607946679 38.40313226096331, 1.3720180951058865 0.6854688562452793 M-0.26311209611594677 86.31600838713348 C-0.9902351004444063 58.86501475218684, -0.89308340376243 33.212420088797806, -0.24808522872626781 0.6779241543263197" stroke="#087f5b" stroke-width="1" fill="none"/></g><g transform="translate(558 119) rotate(0 37.5 43.5)"><path d="M0 0 C0 0, 0 0, 0 0 M0 0 C0 0, 0 0, 0 0 M-0.2614568240614483 6.397784017075889 C1.6562269614674325 4.191741175163474, 3.5739107469963134 1.9856983332510598, 4.98701540786261 0.36010737529371317 M-0.2614568240614483 6.397784017075889 C0.9588180794066639 4.994018320001506, 2.179092982874776 3.5902526229271223, 4.98701540786261 0.36010737529371317 M0.13314538086761107 12.040858453929006 C2.5009799873125926 9.316976329150107, 4.868814593757574 6.593094204371208, 10.630089844715727 -0.03449482963534578 M0.13314538086761107 12.040858453929006 C3.5550311108805426 8.104429217001728, 6.976916840893474 4.167999980074451, 10.630089844715727 -0.03449482963534578 M-0.12831144319383903 18.438642471004897 C4.130028365078003 13.539982888357398, 8.388368173349845 8.6413233057099, 15.617105252578337 0.32561254565836695 M-0.12831144319383903 18.438642471004897 C5.538588672229862 11.919619611344379, 11.205488787653563 5.40059675168386, 15.617105252578337 0.32561254565836695 M0.26629076173522215 24.081716907858013 C7.444513258056673 15.824116528086687, 14.622735754378123 7.566516148315362, 21.260179689431453 -0.06898965927069156 M0.26629076173522215 24.081716907858013 C6.42221457208754 17.000136639169128, 12.578138382439858 9.918556370480243, 21.260179689431453 -0.06898965927069156 M0.004833937673772937 30.4795009249339 C10.431623021285132 18.484852174390493, 20.85841210489649 6.490203423847085, 26.247195097294064 0.29111771602302206 M0.004833937673772937 30.4795009249339 C9.454709398046688 19.608662743147807, 18.904584858419604 8.737824561361712, 26.247195097294064 0.29111771602302206 M-0.25662288638767805 36.877284942009794 C8.686409597620042 26.589502907656083, 17.62944208162776 16.301720873302372, 31.89026953414718 -0.10348448890603734 M-0.25662288638767805 36.877284942009794 C6.209437404856612 29.43893346377608, 12.675497696100901 22.00058198554237, 31.89026953414718 -0.10348448890603734 M0.13797931854138312 42.520359378862906 C10.387138698766412 30.730050227279172, 20.63629807899144 18.939741075695437, 36.877284942009794 0.25662288638767805 M0.13797931854138312 42.520359378862906 C14.637132615491607 25.84099149459703, 29.13628591244183 9.161623610331155, 36.877284942009794 0.25662288638767805 M-0.12347750552006431 48.9181433959388 C13.343002094740468 33.42673070731287, 26.809481695001 17.935318018686942, 42.520359378862906 -0.13797931854138312 M-0.12347750552006431 48.9181433959388 C16.416917094444738 29.8905960051703, 32.95731169440954 10.863048614401798, 42.520359378862906 -0.13797931854138312 M0.2711246994089933 54.56121783279191 C14.215888045476234 38.519602633302625, 28.160651391543475 22.47798743381334, 47.50737478672552 0.22212805675232872 M0.2711246994089933 54.56121783279191 C11.052984326450298 42.158107146751895, 21.834843953491603 29.754996460711883, 47.50737478672552 0.22212805675232872 M0.009667875347545873 60.9590018498678 C15.04753142713025 43.659918707796656, 30.085394978912955 26.36083556572551, 53.15044922357863 -0.1724741481767289 M0.009667875347545873 60.9590018498678 C15.669205809858518 42.944764138327436, 31.32874374436949 24.93052642678707, 53.15044922357863 -0.1724741481767289 M-0.25178894871390156 67.3567858669437 C15.674786690209446 49.03535641671051, 31.601362329132794 30.71392696647733, 58.13746463144125 0.1876332271169865 M-0.25178894871390156 67.3567858669437 C13.103889328654507 51.992835519651166, 26.459567606022915 36.628885172358636, 58.13746463144125 0.1876332271169865 M0.14281325621515606 72.99986030379681 C22.728815224048347 47.01763719456994, 45.31481719188154 21.035414085343085, 63.78053906829436 -0.20696897781207468 M0.14281325621515606 72.99986030379681 C17.067102414248183 53.53069274172255, 33.99139157228121 34.06152517964829, 63.78053906829436 -0.20696897781207468 M-0.11864356784629138 79.3976443208727 C19.528452296058536 56.79624594539402, 39.17554815996336 34.19484756991533, 68.76755447615697 0.1531383974816336 M-0.11864356784629138 79.3976443208727 C25.165397855585603 50.311681860489315, 50.4494392790175 21.225719400105937, 68.76755447615697 0.1531383974816336 M0.27595863708276624 85.04071875772581 C19.077410324064612 63.41212272712974, 37.87886201104646 41.78352669653367, 74.41062891301009 -0.2414638074474169 M0.27595863708276624 85.04071875772581 C26.162626568441926 55.26151380126899, 52.049294499801086 25.482308844812167, 74.41062891301009 -0.2414638074474169 M1.982678899992841 89.1743740341334 C21.071344796230328 67.21537585110467, 40.160010692467814 45.25637766807594, 77.42946723390118 2.3827723085146104 M1.982678899992841 89.1743740341334 C18.372949877902744 70.31952411535443, 34.76322085581265 51.46467419657547, 77.42946723390118 2.3827723085146104 M7.6257533368459605 88.77977182920432 C25.032732061417665 68.75533343928876, 42.43971078598937 48.73089504937322, 77.82406943883024 8.025846745367723 M7.6257533368459605 88.77977182920432 C28.3360701342754 64.9552776819029, 49.04638693170484 41.13078353460147, 77.82406943883024 8.025846745367723 M12.612768744708568 89.13987920449804 C34.92250394069812 63.47546466156504, 57.23223913668767 37.811050118632046, 77.56261261476878 14.423630762443612 M12.612768744708568 89.13987920449804 C35.76989649784913 62.50065103530429, 58.9270242509897 35.86142286611054, 77.56261261476878 14.423630762443612 M18.255843181561687 88.74527699956897 C39.1434890137493 64.71678913299874, 60.031134845936926 40.68830126642852, 77.30115579070734 20.8214147795195 M18.255843181561687 88.74527699956897 C39.34869410693419 64.48072767679801, 60.441545032306685 40.21617835402706, 77.30115579070734 20.8214147795195 M23.242858589424294 89.1053843748627 C43.43781350292879 65.87374625711442, 63.632768416433294 42.64210813936615, 77.6957579956364 26.464489216372623 M23.242858589424294 89.1053843748627 C43.131807066019306 66.22576639454137, 63.020755542614324 43.34614841422004, 77.6957579956364 26.464489216372623 M28.885933026277414 88.71078216993364 C45.08270817319806 70.0785237420537, 61.2794833201187 51.44626531417377, 77.43430117157496 32.862273233448505 M28.885933026277414 88.71078216993364 C43.09538012478038 72.3646831437376, 57.30482722328334 56.01858411754154, 77.43430117157496 32.862273233448505 M33.87294843414002 89.07088954522735 C51.289507734951954 69.03542996308207, 68.70606703576388 48.99997038093678, 77.828903376504 38.505347670301624 M33.87294843414002 89.07088954522735 C43.84328787058603 77.60132604827012, 53.81362730703205 66.1317625513129, 77.828903376504 38.505347670301624 M39.51602287099314 88.6762873402983 C50.820557023166735 75.67190839328686, 62.12509117534033 62.66752944627541, 77.56744655244256 44.903131687377524 M39.51602287099314 88.6762873402983 C53.267808502453676 72.85666760699029, 67.01959413391421 57.03704787368227, 77.56744655244256 44.903131687377524 M44.503038278855755 89.03639471559201 C55.24675481214884 76.67716263955361, 65.99047134544193 64.31793056351522, 77.30598972838112 51.30091570445341 M44.503038278855755 89.03639471559201 C55.25704127283112 76.6653294201626, 66.01104426680646 64.2942641247332, 77.30598972838112 51.30091570445341 M50.14611271570887 88.64179251066295 C58.42748962644764 79.11515814425954, 66.70886653718642 69.58852377785612, 77.70059193331016 56.94399014130652 M50.14611271570887 88.64179251066295 C59.14284977664577 78.29223042768673, 68.13958683758267 67.94266834471053, 77.70059193331016 56.94399014130652 M55.13312812357148 89.00189988595666 C62.261908001182114 80.80117673272053, 69.39068787879275 72.60045357948441, 77.43913510924872 63.341774158382414 M55.13312812357148 89.00189988595666 C60.887632961699815 82.38209932097338, 66.64213779982815 75.76229875599009, 77.43913510924872 63.341774158382414 M60.77620256042459 88.6072976810276 C66.69981545427733 81.7929605513324, 72.62342834813005 74.9786234216372, 77.83373731417778 68.98484859523552 M60.77620256042459 88.6072976810276 C65.11338454888276 83.61794054513732, 69.45056653734095 78.62858340924703, 77.83373731417778 68.98484859523552 M65.7632179682872 88.96740505632131 C70.1814410543347 83.88482080207775, 74.59966414038222 78.80223654783418, 77.57228049011633 75.38263261231143 M65.7632179682872 88.96740505632131 C68.24405126381394 86.11353280956537, 70.72488455934068 83.25966056280942, 77.57228049011633 75.38263261231143 M71.40629240514032 88.57280285139227 C73.69378447410564 85.94134424348594, 75.98127654307095 83.30988563557962, 77.31082366605489 81.78041662938732 M71.40629240514032 88.57280285139227 C73.26070781758595 86.4395419470511, 75.11512323003159 84.30628104270993, 77.31082366605489 81.78041662938732" stroke="#fa5252" stroke-width="0.5" fill="none"/><path d="M0 0 C28.89445467386395 0, 57.7889093477279 0, 75 0 M0 0 C17.541960566304624 0, 35.08392113260925 0, 75 0 M75 0 C75 28.118371923454106, 75 56.23674384690821, 75 87 M75 0 C75 31.78793695103377, 75 63.57587390206754, 75 87 M75 87 C55.39105699863285 87, 35.7821139972657 87, 0 87 M75 87 C46.751615018583834 87, 18.50323003716766 87, 0 87 M0 87 C0 52.545173530094324, 0 18.09034706018865, 0 0 M0 87 C0 67.90942019093782, 0 48.81884038187563, 0 0" stroke="#c92a2a" stroke-width="1" fill="none"/></g><g transform="translate(584 149) rotate(0 37.5 43.5)"><path d="M0 0 C0 0, 0 0, 0 0 M0 0 C0 0, 0 0, 0 0 M-0.6397950879903385 6.03144590561568 C0.760539507933722 4.4027335021769645, 1.6113445214860604 3.441083166106831, 4.786897368314213 -0.33777966538097326 M-0.21330328133421633 6.017445003290765 C1.3986056114144332 4.362657997360351, 3.018450373936655 2.4903292990669685, 4.744285385640806 0.33920470660899216 M-0.8390397033561362 11.694657889425336 C1.847070050936162 7.546619486563078, 6.462073202909714 7.441183388395025, 9.239983026635779 -1.0807103668257831 M-0.17153425280939472 12.050261231183589 C3.1276934889702686 8.044423911484007, 6.733203751703464 3.6327124631093173, 10.791053664636744 0.25005657776144763 M1.349141971156909 16.592406595964604 C4.255233210029681 16.057268828390473, 9.033275568820756 11.101349835498851, 15.17122037289985 1.016585585374849 M-0.2166798608890037 18.806751907710606 C5.161434109851481 10.819364313513606, 12.735521133895736 4.850844186086698, 14.979319517969568 -0.22958275425015184 M-1.308898050133207 24.142579206912874 C8.802851557781082 16.956870578347477, 11.655739352194352 9.81629819358374, 21.962889308387304 0.4270269585936788 M0.9996526597253297 24.1938947883389 C6.700793663582703 18.517775461731063, 11.098644096796873 11.68093804265102, 21.198089648315573 0.7826356360852245 M-1.4468153072009429 29.918801577527276 C8.350941929161245 18.20040493523797, 20.65726019482824 7.125754986782059, 26.537010109659644 1.95157961491614 M-0.3959931143979176 30.15687037235891 C8.112512138225348 21.033959370376266, 16.0022281394356 11.745795566091232, 26.203990370642753 0.7557575305935682 M-1.2331357319932899 35.62571471352254 C12.935663956266414 25.11489328158794, 21.599054986433153 10.855507566107885, 32.66627212376038 -1.6824812701658125 M-0.765929736299487 36.12633284907912 C10.461512310992907 24.95282805873113, 20.38425967025718 14.019097889868583, 31.991940035900868 -0.36669433663941575 M0.04252099354276595 42.651553370613385 C14.630180735250729 26.10348915573247, 25.71692644560098 13.704119556324802, 36.003034831771004 -0.6704484502691308 M0.6818271159798854 42.597389532807995 C14.069285684192124 27.31157020486528, 27.647313410276144 10.794691226841728, 36.27441775407766 1.2545942143630704 M-1.3737356495112962 49.70727479518287 C9.011916098678306 39.43953244978853, 16.303139465248094 28.789257054244842, 43.95280008073502 1.2071407500981337 M-0.38711844757207103 48.706229603522345 C9.535037382646008 38.48780515443829, 17.159995238846772 28.72885262221515, 43.41743562612288 0.6295521676867253 M1.5173461858880373 54.91859166272293 C11.096422631030169 40.191809559260996, 23.08059117939398 26.156860621170747, 49.05073985173392 -0.0028189226809693935 M0.8463706739944072 54.25965704530786 C17.967667751322395 33.51699743034095, 35.9924764640926 14.413328680957136, 46.87956651202428 -0.7111000466916515 M-0.15531151917774366 61.238648719616634 C15.489167724301925 40.36844325981832, 32.34911494225302 24.64534104168831, 52.83516849181122 0.9113227068855174 M0.7939923406670601 61.08526728814135 C16.747429395590913 43.17128981946664, 31.731752945744027 23.67013705378482, 54.14791626273161 0.5589728053136476 M0.08429655334436603 66.5400557215787 C14.333745790712968 49.764819907733354, 29.61389215719077 33.545131859436545, 59.224070482048404 -0.2613521148193634 M-0.26008162559485726 67.06098014633129 C13.728546530882335 49.94889622987069, 29.22338791666315 32.89129610701747, 57.177151488232624 0.911897403679415 M0.7160819715073714 73.25401617432384 C25.45477095109305 42.074090527152364, 50.30401902903858 16.137374620631142, 62.38857266948898 0.18299428769633863 M-0.4398825278320899 73.69166855918614 C19.487596452233795 50.90554601540874, 37.68284175547616 29.4937707000027, 63.325471789477064 -0.7595847675086489 M0.8806854663927624 78.00945607423512 C24.41647439346031 50.244900517365394, 50.86993601103049 19.17945021418192, 68.12947203521445 -0.7243683391843305 M-0.558321881056898 79.68578733168272 C28.546303378956324 49.44895408256742, 53.81622725340576 17.530587433764566, 67.79363752645268 0.20805922172625202 M-0.403109864955951 85.72505684680448 C16.83713859158452 67.38925738084232, 28.920071218028998 49.59674072090697, 73.7507079262683 0.7125851800306009 M0.16272179068047876 84.98490607290671 C25.7478218294266 56.38422548838723, 50.89352776431445 27.137454759351364, 74.56094205010923 -0.47602289453016056 M3.1063262955142434 88.75780324774666 C21.386258912036972 68.20513400148494, 39.97620132424507 45.28118214531544, 75.46771273676053 2.5314408323924695 M2.4996078093393024 89.84975709716662 C24.723323636741856 60.94786937970825, 49.872854888631444 33.39695069798892, 76.85606238346294 1.5572368043672 M6.122707602827873 87.25914504210806 C34.05373366046553 60.18343690498007, 55.787290823099895 33.56971087894575, 78.90512025575362 7.4298304538387825 M7.53866945885035 89.15389710310257 C33.86529727566337 57.494239966306765, 62.10642041611075 26.69317260077856, 78.71726756948254 7.592811462949591 M13.272004643113881 91.11593112738561 C35.65518122543205 60.60266143103634, 63.301220825321934 30.236532130279095, 76.40964760928158 15.649850889638731 M13.178887579248816 88.26214129680525 C29.62577650088474 70.87947902415877, 45.013427078597815 52.371311522037104, 77.36780061310832 14.653498610079954 M18.838625513415792 88.23121792907122 C37.12450410361093 68.74163974246508, 53.79452737411499 48.49465111540668, 78.39480011539744 20.12661189550704 M18.940571146484473 89.24887178736034 C38.316380456941076 64.23288674978889, 60.25310334719902 41.2534164494477, 77.62308333629953 20.58596806006676 M24.86164844481508 89.71049394354799 C45.48744962529182 66.19607921013153, 66.52714263022031 42.3710664110464, 77.2779893421542 28.35381697715844 M23.124089895545048 90.02176212974467 C38.717466486394116 72.09397776548846, 52.88960686084752 54.37592033316729, 76.89033443601542 25.8638427522185 M29.008294034355274 87.19900309630783 C45.25106393433979 69.92257256143205, 58.83444471539744 52.56611408072621, 76.13735602063335 32.02289213097596 M29.745846552380314 89.59660068304392 C38.46807318476865 77.06019346158722, 48.41237993700304 64.47677876225275, 76.88789239724375 33.16432749151194 M33.950453013117844 90.2944213837338 C50.53436116332966 73.17195787034552, 65.26791932649216 53.69917576608363, 75.92918324787837 37.11501878245158 M32.977304601978 89.44746725223487 C45.87610337852782 76.39903112589235, 57.79072358010251 61.79230088413632, 77.92512869593423 39.397741887032815 M39.23815847814632 87.88418023131788 C54.19441162591315 73.19403494760826, 69.21698437442731 54.961535891587154, 76.8644242549708 45.313810427968335 M40.080960520287874 88.78155644640327 C49.896369750230924 76.4030280250811, 61.434393547151885 62.23662779471484, 77.34147556707467 45.057696993757915 M42.67611366052218 89.55814313544307 C52.324445944569206 81.07966315693328, 56.23967024533728 74.59481568476815, 77.62611560996362 52.097345573240936 M43.849371542297675 89.88935432052587 C54.367146999181166 76.12241898693412, 65.77642938004836 64.52572874506936, 77.78633920762428 52.250628250995696 M48.197164157288924 86.94592902160136 C55.99645193201662 79.08203047443035, 63.83835624596118 71.86601456934618, 76.02620013090981 56.377296473984124 M49.54112789395715 89.4194617336884 C60.60409778842708 76.41120838764188, 68.74527607948934 66.61911902471661, 76.9384226895423 56.27242422305465 M55.238825699528064 87.12958888617577 C65.13513957230083 80.1033048807209, 72.1984173207223 68.17566892368158, 77.66234979889092 62.13805787658095 M55.31988056025406 89.72877099086763 C61.73070778013998 82.78904841835153, 66.75997170437158 75.81702787988634, 77.22504887281653 63.18505533991158 M62.61675638428309 89.98092915465827 C62.82128181683454 85.26043461477904, 68.05898281051473 79.81317608494243, 79.1353789609504 68.52877995652335 M61.19031351713815 88.1572892011493 C66.425969885228 82.39995330149733, 72.47254229638338 73.92077651560008, 78.10207360839668 69.84610683565217 M65.88747779520067 89.51350999672084 C67.30142994193805 84.77690238612497, 72.17731484011905 80.33845079894013, 77.44042293736443 75.28670372540611 M65.46977614646616 88.43722393319129 C68.60217623271042 85.91247106641043, 71.04526218301058 82.15716620850738, 78.40085020465509 75.27132311245907 M72.25435703506015 88.10055371136063 C72.37206123294287 87.47049346617327, 74.76192570630043 84.94899700261861, 77.2209466792011 81.32838421065199 M71.47601532793857 88.16800924553195 C73.03744787585654 86.52395048489807, 73.97279890873045 85.48492740335134, 77.20175962860895 82.1502650767735" stroke="#f7df1e" stroke-width="0.5" fill="none"/><path d="M0.8644884265959263 1.720840211957693 C19.194966127164665 -0.8111595981754363, 41.37340906821192 -1.8710540407337248, 73.17458290234208 1.2912789545953274 M-0.28566342778503895 0.7406773883849382 C19.21227949578315 0.002481244970113039, 40.50605791434646 -0.09981659753248096, 75.53877293877304 -0.8914724867790937 M76.91206974163651 1.5184985361993313 C74.10703964499757 25.136857066489757, 75.34966762332246 47.79683775864542, 75.07147223129869 85.0360770188272 M74.12715995125473 -0.861992983147502 C75.14163778373971 23.562839535064995, 75.08285145113244 47.6987030133605, 74.79461198858917 86.71530118770897 M73.0173025764525 88.21266793832183 C58.41681148391217 86.16597414994612, 40.92722508497536 87.95670379186049, 0.7922484315931797 85.62404143437743 M75.28297763876617 86.61360088177025 C48.48786830808967 87.16502929804847, 22.136421620845788 86.1920458781533, -0.4656488914042711 87.66236302442849 M-0.2967417798936367 86.97754275426269 C0.5495022928901017 53.68123783525079, 0.48264388205483555 20.20658437497913, -1.229860957711935 1.3817102871835232 M-0.6666600722819567 86.65165087766945 C1.410494813080877 58.838840604387215, 0.23600489770993582 30.59899976775049, -0.7017875332385302 0.013983042910695076" stroke="#f7df1e" stroke-width="1" fill="none"/></g><g transform="translate(505.5 10) rotate(0 41 10.5)"><text x="0" y="15" font-family="Virgil, Segoe UI Emoji" font-size="16px" fill="#0b7285" text-anchor="start" style="white-space: pre;" direction="ltr">Navigateur</text></g><g transform="translate(569.5 69) rotate(0 15.5 10.5)"><text x="0" y="15" font-family="Virgil, Segoe UI Emoji" font-size="16px" fill="#087f5b" text-anchor="start" style="white-space: pre;" direction="ltr">html</text></g><g transform="translate(617.5 89) rotate(0 12.5 10.5)"><text x="0" y="15" font-family="Virgil, Segoe UI Emoji" font-size="16px" fill="#c92a2a" text-anchor="start" style="white-space: pre;" direction="ltr">css</text></g><g transform="translate(644.5 117) rotate(0 7 10.5)"><text x="0" y="15" font-family="Virgil, Segoe UI Emoji" font-size="16px" fill="#f7df1e" text-anchor="start" style="white-space: pre;" direction="ltr">js</text></g><g transform="translate(441 120) rotate(0 37.5 43.5)"><path d="M0 0 C0 0, 0 0, 0 0 M0 0 C0 0, 0 0, 0 0 M-0.13780457895713538 5.615307447363727 C1.5290115439227776 5.3978637009228825, 1.9986758413356769 3.2272009823088936, 5.514205260159916 0.34146761855457364 M-0.10217085030394296 6.491023265619867 C0.8645006004947234 4.719586422447317, 1.8586144746340434 3.9527792285589993, 4.672251312764829 -0.017527089655656247 M1.6526854553352703 11.35979308229643 C4.434488059873215 9.275669904723623, 4.948660354027441 3.34782506846154, 9.808905450952185 -1.0263661895796894 M-0.09353208606134789 12.49285232615429 C3.7503753023407533 8.942830612844284, 5.6733466554416925 5.841380631923087, 11.32694157357229 -0.7046911944553493 M-1.4714432796975832 20.12176259877222 C5.088761826225011 16.238753511000862, 6.7495888598977025 8.756119627361471, 17.292834829076607 1.4679996936512163 M-0.7301695840945701 18.14432305181461 C5.720504705541991 11.89663901036647, 9.85741827321382 7.972163462694011, 16.412210409998377 0.8466663683694771 M-0.047146875206449224 22.13354409643924 C5.753082404326257 16.260681845726612, 13.69877158394452 12.028661769255656, 19.82504331534531 0.463096828588796 M0.03825644237913828 24.637087270333527 C7.3248049553425645 15.729570861001378, 14.118407790456308 8.166971430501022, 20.900847483703757 0.6061076590954784 M1.727350418507065 30.072547228772393 C7.0752627409868944 24.08985884489385, 14.15766221348055 15.181124464831809, 24.2822817923989 -0.03902287836999285 M-0.04845988838473403 29.933223254744163 C8.380952229637224 22.606008383899187, 15.012785150427332 12.450581311215334, 26.27720108689031 0.7102415164944471 M-0.503977330504032 36.83091300148641 C9.4588330682863 26.271565508983663, 17.880364251904794 16.85680191957466, 30.249739607280887 1.8764157482668047 M-0.7588811294269284 36.369635194355 C8.08686691840569 25.51413177652973, 18.268070459613366 14.69284200968016, 32.1299395705078 -0.9911593253479118 M1.7817501958132738 40.984376170296 C7.977665242107459 34.118871587089366, 13.542603358086183 26.76038948058395, 35.19227624107276 -0.7983800451177636 M0.29272704121181903 42.3476804034745 C15.134255585451074 26.2359122892178, 29.456394008015142 8.012846244581027, 36.76529204454397 0.2474693135451993 M-1.3568575214595384 48.431393981584236 C13.138577008206363 34.56404951328362, 27.48294761397761 16.428839348090506, 42.327893540818025 1.343552416968251 M-0.6342812664807624 49.909798062079474 C10.39145205339058 37.41704687501175, 21.548231168747197 24.553647797922288, 42.143020609948564 -0.6576935827405208 M0.8919513647210451 54.48517911084305 C19.74484443772546 34.8377711345171, 38.36874944852059 14.047414765854462, 46.00426348759818 -0.4633921190921022 M0.8729810484450908 54.769042154255615 C17.112597851213057 34.1608938339956, 33.48693480811621 15.438224257530742, 48.31544812670934 0.7303224157717274 M1.4695988354365142 61.2863763044555 C9.640025617028442 48.50041627200387, 20.065612819710765 36.53204139186329, 51.572200428456725 0.1799365221931346 M-0.18003815402288126 61.65925810997973 C13.349052679308555 44.704170184850284, 26.413233056724582 28.486718166530483, 52.363430445776046 -0.3558974568323485 M-1.3354097912601262 67.89509531813631 C18.337092299434207 47.58424051361719, 33.36153733228139 26.397071055545815, 56.76218884447516 -1.7498794127929962 M0.08458294807457634 66.3646157435603 C13.357323084646422 53.094672761471074, 24.565808528375726 38.65127158596474, 58.83538417713643 -0.5379765205759561 M0.7693370526841292 71.9300396576002 C18.05686244618471 50.63904593526636, 39.466061976079125 25.601174264920715, 63.55785558269699 -1.3615022485585442 M0.13656305169671867 73.29623799430577 C24.33089023563592 44.94018373711522, 46.89167968387342 17.866797171691985, 64.68325892174025 -1.016923291373395 M-1.2630199016492298 79.20763531923023 C25.19197359762798 49.05117593176812, 49.278631223284656 21.565566960186274, 67.5724976242037 1.5638377612795367 M0.7567406418312856 79.06882966719297 C19.879505233223867 56.001498659914404, 39.76989699522944 33.926486256960224, 69.70156503957524 -0.22295483924786907 M1.3988024427833068 85.83406372851834 C18.904980600379485 62.8630829709583, 37.32234176123425 42.975510209634805, 73.92255431603881 -0.09033420778678192 M-0.6830128055719626 84.53021037130759 C18.547976931430195 61.96679031323761, 38.883838919661784 40.36893030198753, 73.46334588159117 -0.5406734301136567 M2.8089344040347513 89.35380964117928 C32.94796301833408 56.64108652742103, 59.841621317128144 23.403868697527628, 76.63595805231229 2.9010678312938367 M2.187412031446236 89.84736242095812 C18.91046485735278 68.39209465884865, 35.91977801708423 48.79815332521037, 77.79102847080425 3.305238856674329 M7.493589637129631 89.10582282225943 C30.548853321372004 61.176964203611035, 55.57349950959802 32.48263770742344, 77.14984262208662 6.4231757144589 M7.048098436816659 88.8000925147847 C34.134243281610985 60.01396073740609, 58.58440226411623 29.41137955350183, 78.31663185018323 8.506005165647345 M11.891238728196889 88.16445216925572 C30.15871474004433 69.40087744042975, 47.722537532636935 47.91567100956055, 77.62342515139584 13.905586286977599 M13.3917772505745 88.65946585887801 C36.202454673308296 61.84038125466226, 60.45958216506628 33.43023060493949, 76.85714902466837 14.990673025668332 M20.09878977428005 89.62025410766009 C34.10532393104444 71.08433843489237, 49.84028047540204 53.19207686118672, 76.28271095829295 19.470909304564657 M17.33250744866953 88.40611456232372 C41.156531233100566 62.363357146392886, 64.39808233833918 36.51337195708808, 77.82175181621896 20.512162251045766 M21.96782100646059 89.7662171338556 C38.522904361935026 72.21863852796089, 54.53732155961813 49.76394088303702, 79.35761161083096 25.80034827293481 M22.76440876608948 89.85396218009868 C43.475448886057464 66.56137298862649, 63.31454943779271 44.20228938587335, 77.21140892179423 26.450345781088128 M28.97805302178203 87.4350851733342 C40.35816530978936 73.90141571490575, 51.74389461845922 64.79043169529974, 77.73876784009136 33.77282918847108 M28.297633928784123 88.92504707128855 C47.6763740585573 67.80964538338291, 64.7059192236522 46.066842836885904, 78.33820882638193 33.388678420772194 M35.61387655132585 89.41203422247892 C46.57602687037648 71.51186480745423, 60.965080798994016 58.594668279251124, 78.19496274311763 36.557033476665445 M33.69739642174118 88.99969904087013 C48.237924964188934 70.84511015738153, 63.239731441117144 53.709617868585156, 78.10527300593179 39.143729779183694 M39.237824692135575 87.77199570678175 C49.70649065424695 79.7846575359671, 56.98098185423585 67.68117960622429, 76.74964955099131 45.02407463390095 M38.81994272091043 88.19136269792915 C47.69302769092977 78.9278656907425, 55.84830880060713 70.17400513050394, 77.4457836954316 44.11536091129942 M45.467100675292684 89.29233312262569 C50.88571800390288 79.3384003891367, 61.939156551703476 69.63428242488192, 77.89836483176538 49.8395311658923 M44.05158006127961 88.69677409744237 C56.713555110882446 74.50430644117458, 69.02417584542948 60.207122731316204, 77.60289709184059 51.316257256427825 M52.04705009784068 88.79016539550273 C57.957414138515475 77.60973454631278, 71.31070011779218 66.23407141908163, 79.26555140349282 55.10257532835424 M49.24464866879846 88.07078409849552 C60.75897800092222 77.57842001955738, 68.87002661749504 65.74045065127484, 77.84906626711799 55.9485573788774 M54.22768869086107 90.53504352179588 C59.25501765302162 84.29735658066778, 66.80557405702866 74.69470064245692, 76.26138124725517 63.98510186766982 M54.15654952845475 88.57653500606538 C59.07709674647092 84.62576390876488, 64.3165410746074 79.53197563165614, 77.20536408125159 62.98048170862496 M60.63717455139735 89.58627392699714 C66.20226932425145 84.21800245535117, 70.92578039377165 76.96604695085793, 77.29916871009591 68.82376095933097 M61.38571661619821 88.46028392923768 C65.46160198497101 81.87742177424921, 71.81005660842823 77.53791387175725, 78.72139638519111 69.17586547975617 M66.56882411630663 89.1817761023727 C71.53518923744512 83.45252715494617, 73.14707424232131 79.02393452157843, 77.21193649479851 76.41763462597984 M64.90590199714364 89.2681619863224 C70.10175734921526 84.30560218462229, 72.45206546689258 81.71057558319616, 77.8801248590435 74.53816509625423 M70.90942533721469 89.30256701321 C73.27332929250325 86.18054516406914, 74.63591891496631 85.69207469474637, 76.84229000576971 82.1921010037123 M71.01009845591403 88.89467974914828 C73.22799716770454 86.21801384339312, 75.33396622045841 84.24763449728934, 77.19291520531489 81.82110824884685" stroke="#654ef0" stroke-width="0.5" fill="none"/><path d="M0.4597356952726841 -0.09825349226593971 C25.80647211242467 -0.724132286850363, 49.784376895055175 -0.3679500692524016, 76.85460800305009 -0.21708476915955544 M-0.34740144200623035 0.5849929172545671 C26.82226341683418 -0.8554630051366985, 53.943037208169706 0.09347816603258252, 74.02400147728622 -0.42468991689383984 M74.52910656109452 1.5028105936944485 C73.99361998824402 24.48966363463551, 77.44224161891266 49.2036857124418, 76.24399000778794 87.64166593179107 M75.94466388039291 -0.12982955388724804 C76.13497370788828 33.53202450592071, 75.01860070535913 69.26526108831168, 75.47060590796173 87.61778322048485 M73.79870707169175 87.3890576325357 C60.09720994811505 87.90781570458785, 44.914820643141866 84.88415325665846, 0.9123370088636875 86.41975485906005 M74.58030944876373 86.11740127392113 C56.37638711836189 86.23722411273047, 38.45890086889267 87.39946408150718, -0.6545536536723375 87.04058358259499 M0.6041085161268711 87.9221819601953 C-0.7304085862450301 69.64375338014216, 0.7016954052634538 53.24752313382923, 1.1053765453398228 1.6312200985848904 M-0.6951644439250231 86.71712729521096 C-0.4002728279866278 57.60354425963014, -0.7475837882794439 29.73578222319484, -0.21750503964722157 0.814231188967824" stroke="#654ef0" stroke-width="1" fill="none"/></g><g transform="translate(460.5 93) rotate(0 20 10.5)"><text x="0" y="15" font-family="Virgil, Segoe UI Emoji" font-size="16px" fill="#654ef0" text-anchor="start" style="white-space: pre;" direction="ltr">wasm</text></g></svg>