<svg version="1.1" xmlns="http://www.w3.org/2000/svg" viewBox="0 0 812.5 175" width="812.5" height="175">
  <!-- svg-source:excalidraw -->
  
  <defs>
    <style>
      @font-face {
        font-family: "Virgil";
        src: url("https://excalidraw.com/FG_Virgil.woff2");
      }
      @font-face {
        font-family: "Cascadia";
        src: url("https://excalidraw.com/Cascadia.woff2");
      }
    </style>
  </defs>
  <rect x="0" y="0" width="812.5" height="175" fill="#ffffff"/><g transform="translate(10 23) rotate(0 79.5 71)"><path d="M-1.5428933016955853 -1.002566147595644 C39.14841764885932 2.138851626124233, 77.55810094438493 0.276224239077419, 157.63364433124661 0.6455136053264141 M-0.7888348940759897 0.15082805790007114 C45.03976244945079 -0.8700728764943779, 87.8550903685391 0.5702044019289314, 159.6424380298704 -0.8738601263612509 M159.70156406238675 1.198855470865965 C161.88214165326207 43.09920182339848, 158.0038499271497 83.22862456142904, 160.94205509498715 142.9414901249111 M158.6322284694761 -0.6995499189943075 C158.2172092531249 33.454677747190004, 157.22739336233587 67.20753250382842, 158.37451175414026 141.056884104386 M159.67547165229917 143.69212813302877 C98.46072466801851 140.30741347977894, 36.726312919333566 141.46676637837666, -0.6371493451297283 142.16396124288443 M158.55425885878503 141.62937241233888 C122.07913159038871 140.72640912873672, 86.59061282724142 141.1236528073065, -0.3466100934892893 142.784177178517 M1.7256312258541584 143.94490320608023 C-0.9178862258419392 113.61902148462835, 2.451006801463664 84.8188470080495, 0.5748640187084675 1.261047076433897 M0.7989725824445486 141.20552718080583 C-0.9932611208781603 100.20976947769523, -0.2552899938449267 56.18971406035125, -0.39647682942450047 -0.333033150061965" stroke="#a61e4d" stroke-width="1" fill="none"/></g><g><g transform="translate(187 88.04355285423702) rotate(0 61.43023798495068 0.15401208456677296)"><path d="M0.8080208949744703 -0.823378687351942 C21.411136175443726 -0.6689691477173463, 102.76020978416005 0.3700212304026401, 123.0873828344047 0.5170355979180952 M-0.22690686450339848 1.3587435564491899 C20.359822649400062 1.2358151983658328, 102.27070105189148 -0.49599410654860054, 122.71021335883998 -1.0507193873156735" stroke="#a61e4d" stroke-width="1" fill="none"/></g><g transform="translate(187 88.04355285423702) rotate(0 61.43023798495068 0.15401208456677296)"><path d="M93.39508899653791 11.679389346376816 C103.7116279836976 8.172082672188534, 110.09340656544587 4.122204894259179, 122.1494245597627 -2.886839646332426 M94.11193651872216 10.626132702440778 C104.0496348654349 7.07779689559079, 113.00500705400539 2.2610697289148574, 123.62749843797647 -0.7826643897672125" stroke="#a61e4d" stroke-width="1" fill="none"/></g><g transform="translate(187 88.04355285423702) rotate(0 61.43023798495068 0.15401208456677296)"><path d="M92.91463940047308 -8.836194256618263 C103.28404497396826 -7.100403552395019, 109.78868617440227 -5.9039488409744925, 122.1494245597627 -2.886839646332426 M93.63148692265733 -9.889450900554301 C103.73470980520776 -6.6233943352358775, 112.84956668473144 -4.629997115405616, 123.62749843797647 -0.7826643897672125" stroke="#a61e4d" stroke-width="1" fill="none"/></g></g><g transform="translate(332.5 18) rotate(0 79.5 71)"><path d="M-1.941147219389677 -1.117427159100771 C42.53827448803932 -0.4806208608485758, 82.23655682168902 1.7507611515186727, 160.54833291843534 -0.42169420793652534 M-0.858556354418397 0.6262158695608377 C50.9374047042802 0.5243138084001839, 101.16907094791532 1.273421348053962, 158.59678730927408 0.520205968990922 M158.61808370426297 0.5184884779155254 C158.2344248783216 54.5162015926093, 159.27311008092016 107.73469031155112, 159.0938805229962 141.70672554895285 M158.33273253403604 0.33215045370161533 C157.027472271733 38.9712051138282, 158.705754830651 75.32631850503388, 159.4621236678213 141.17156940139833 M158.0595968849957 143.80123562738302 C97.60242853593081 143.0919181246497, 39.28233370371163 144.0845382351615, 0.7327699549496174 141.53849537298086 M158.3040411826223 141.37192636169496 C121.81171957161277 141.299933534693, 84.92685607522726 142.75356606824326, -0.8857453111559153 142.1880851928145 M-1.566680919378996 140.74534065648916 C0.643498800136149 112.37647754885259, 1.2057359436526895 82.86877090483905, 0.3469592221081257 0.06861038133502007 M0.40052339993417263 141.66503822244707 C-1.7150810128077865 101.15405801758172, -1.6893825298175216 57.81433673910797, 0.9510685559362173 -0.9697364028543234" stroke="#1864ab" stroke-width="1" fill="none"/></g><g transform="translate(643.5 10) rotate(0 79.5 71)"><path d="M-1.5467853657901287 -0.8763920553028584 C39.70122938472778 2.8536855348013344, 78.7290178474039 0.9494588740728795, 158.75961600616574 0.4242336265742779 M-0.36703851260244846 0.6839581672102213 C32.586726921983065 -0.967647080104798, 65.54828006103635 -0.2290738269500434, 159.73370805941522 0.8217360321432352 M159.964040864259 -0.7834413535892963 C157.1988092064485 41.24294086806477, 157.9311475157365 86.82957623302939, 159.94657825306058 142.27885348722342 M158.84933773241937 -0.6183183845132589 C156.85058291535825 45.4799179300666, 158.4425064502284 93.63131014369431, 159.22551116906106 141.64964174665513 M159.79794524982572 143.61515433713797 C114.69263864587992 139.55835194239395, 69.52750614471734 140.63777548918503, -1.7737280242145061 142.3745431415737 M158.97006235085428 142.87973808683458 C114.53989371564239 143.70819265527655, 70.48067196458578 141.7842254726403, 0.25539067946374416 141.96348839439455 M-0.7803017012774944 140.05657763406637 C2.0462893358245493 107.54908982254565, -0.9710137733444568 71.1250485137105, -0.9295010678470135 0.05395395681262016 M-0.6108827237039804 142.08004408515993 C-0.951137189231813 96.12429262623192, -0.8380916756018997 51.422991011664266, -0.41743710078299046 -0.10629189573228359" stroke="#e67700" stroke-width="1" fill="none"/></g><g><g transform="translate(514.6278624959291 83.4687674942412) rotate(0 51.98203741051253 -0.2977696241737817)"><path d="M-0.3721375040709972 0.5505409888923167 C16.979776902620973 0.6593394030787881, 86.91139523896071 0.40194480203506194, 104.33621232509604 0.39598262662192396 M1.633351576952264 -0.2060289372783155 C18.80443772673916 -0.38801958815484383, 86.42344871243144 -1.0048372922330664, 103.36930614250703 -1.1723571274510254" stroke="#1864ab" stroke-width="1" fill="none"/></g><g transform="translate(514.6278624959291 83.4687674942412) rotate(0 51.98203741051253 -0.2977696241737817)"><path d="M76.19455024596714 9.294938153468859 C86.01277357087261 5.761015877212481, 95.16453571881145 2.881868974136908, 101.47882346722288 -0.6615757685235371 M74.81375576738678 8.964662601121557 C82.67795114787157 6.959909493515782, 92.84216422516957 2.33154315520086, 104.11748901109202 -1.6371076613745321" stroke="#1864ab" stroke-width="1" fill="none"/></g><g transform="translate(514.6278624959291 83.4687674942412) rotate(0 51.98203741051253 -0.2977696241737817)"><path d="M76.00017078754446 -11.225349832131698 C85.83643336451647 -8.218296257247582, 95.05014952463286 -4.557070108236826, 101.47882346722288 -0.6615757685235371 M74.6193763089641 -11.555625384479 C82.4484827652892 -7.477863456834706, 92.67029996950161 -6.025066265653577, 104.11748901109202 -1.6371076613745321" stroke="#1864ab" stroke-width="1" fill="none"/></g></g><g transform="translate(50 53) rotate(0 43.5 13)"><text x="43.5" y="18" font-family="Virgil, Segoe UI Emoji" font-size="20px" fill="#a61e4d" text-anchor="middle" style="white-space: pre;" direction="ltr">C / C++</text></g><g transform="translate(362.5 43) rotate(0 50.5 39)"><text x="50.5" y="18" font-family="Virgil, Segoe UI Emoji" font-size="20px" fill="#1864ab" text-anchor="middle" style="white-space: pre;" direction="ltr">CLang</text><text x="50.5" y="44" font-family="Virgil, Segoe UI Emoji" font-size="20px" fill="#1864ab" text-anchor="middle" style="white-space: pre;" direction="ltr">LLVM</text><text x="50.5" y="70" font-family="Virgil, Segoe UI Emoji" font-size="20px" fill="#1864ab" text-anchor="middle" style="white-space: pre;" direction="ltr">Emscripten</text></g><g transform="translate(696.5 57) rotate(0 29.5 13)"><text x="29.5" y="18" font-family="Virgil, Segoe UI Emoji" font-size="20px" fill="#e67700" text-anchor="middle" style="white-space: pre;" direction="ltr">asm.js</text></g></svg>